<svg width="109" height="20" viewBox="0 0 109 20" fill="none" xmlns="http://www.w3.org/2000/svg">
<path d="M108 7.64095C108.1 7.14095 107.7 6.54095 107.2 6.54095L101.5 5.74095L98.9 0.540954C98.8 0.340954 98.7 0.240954 98.5 0.140954C98 -0.159046 97.4 0.0409541 97.1 0.540954L94.6 5.74095L88.9 6.54095C88.6 6.54095 88.4 6.64095 88.3 6.84095C87.9 7.24095 87.9 7.84095 88.3 8.24095L92.4 12.241L91.4 17.941C91.4 18.141 91.4 18.341 91.5 18.541C91.8 19.041 92.4 19.241 92.9 18.941L98 16.241L103.1 18.941C103.2 19.041 103.4 19.041 103.6 19.041C103.7 19.041 103.7 19.041 103.8 19.041C104.3 18.941 104.7 18.441 104.6 17.841L103.6 12.141L107.7 8.14095C107.9 8.04095 108 7.84095 108 7.64095Z" fill="#FCA93F"/>
<path d="M86 7.64095C86.1 7.14095 85.7 6.54095 85.2 6.54095L79.5 5.74095L76.9 0.540954C76.8 0.340954 76.7 0.240954 76.5 0.140954C76 -0.159046 75.4 0.0409541 75.1 0.540954L72.6 5.74095L66.9 6.54095C66.6 6.54095 66.4 6.64095 66.3 6.84095C65.9 7.24095 65.9 7.84095 66.3 8.24095L70.4 12.241L69.4 17.941C69.4 18.141 69.4 18.341 69.5 18.541C69.8 19.041 70.4 19.241 70.9 18.941L76 16.241L81.1 18.941C81.2 19.041 81.4 19.041 81.6 19.041C81.7 19.041 81.7 19.041 81.8 19.041C82.3 18.941 82.7 18.441 82.6 17.841L81.6 12.141L85.7 8.14095C85.9 8.04095 86 7.84095 86 7.64095Z" fill="#FCA93F"/>
<path d="M64 7.64095C64.1 7.14095 63.7 6.54095 63.2 6.54095L57.5 5.74095L54.9 0.540954C54.8 0.340954 54.7 0.240954 54.5 0.140954C54 -0.159046 53.4 0.0409541 53.1 0.540954L50.6 5.74095L44.9 6.54095C44.6 6.54095 44.4 6.64095 44.3 6.84095C43.9 7.24095 43.9 7.84095 44.3 8.24095L48.4 12.241L47.4 17.941C47.4 18.141 47.4 18.341 47.5 18.541C47.8 19.041 48.4 19.241 48.9 18.941L54 16.241L59.1 18.941C59.2 19.041 59.4 19.041 59.6 19.041C59.7 19.041 59.7 19.041 59.8 19.041C60.3 18.941 60.7 18.441 60.6 17.841L59.6 12.141L63.7 8.14095C63.9 8.04095 64 7.84095 64 7.64095Z" fill="#FCA93F"/>
<path d="M42 7.64095C42.1 7.14095 41.7 6.54095 41.2 6.54095L35.5 5.74095L32.9 0.540954C32.8 0.340954 32.7 0.240954 32.5 0.140954C32 -0.159046 31.4 0.0409541 31.1 0.540954L28.6 5.74095L22.9 6.54095C22.6 6.54095 22.4 6.64095 22.3 6.84095C21.9 7.24095 21.9 7.84095 22.3 8.24095L26.4 12.241L25.4 17.941C25.4 18.141 25.4 18.341 25.5 18.541C25.8 19.041 26.4 19.241 26.9 18.941L32 16.241L37.1 18.941C37.2 19.041 37.4 19.041 37.6 19.041C37.7 19.041 37.7 19.041 37.8 19.041C38.3 18.941 38.7 18.441 38.6 17.841L37.6 12.141L41.7 8.14095C41.9 8.04095 42 7.84095 42 7.64095Z" fill="#FCA93F"/>
<path d="M20 7.64095C20.1 7.14095 19.7 6.54095 19.2 6.54095L13.5 5.74095L10.9 0.540954C10.8 0.340954 10.7 0.240954 10.5 0.140954C10 -0.159046 9.4 0.0409541 9.1 0.540954L6.6 5.74095L0.9 6.54095C0.6 6.54095 0.4 6.64095 0.3 6.84095C-0.1 7.24095 -0.1 7.84095 0.3 8.24095L4.4 12.241L3.4 17.941C3.4 18.141 3.4 18.341 3.5 18.541C3.8 19.041 4.4 19.241 4.9 18.941L10 16.241L15.1 18.941C15.2 19.041 15.4 19.041 15.6 19.041C15.7 19.041 15.7 19.041 15.8 19.041C16.3 18.941 16.7 18.441 16.6 17.841L15.6 12.141L19.7 8.14095C19.9 8.04095 20 7.84095 20 7.64095Z" fill="#FCA93F"/>
</svg>
