<svg width="48" height="48" viewBox="0 0 48 48" fill="none" xmlns="http://www.w3.org/2000/svg">
<circle cx="24" cy="24" r="24" fill="#FFD2A4"/>
<g clip-path="url(#clip0_1026_3601)">
<path d="M30.7799 13C28.948 13 27.8477 14.1752 27.2475 15.1606C26.6472 14.1752 25.5469 13 23.715 13C21.2852 13 19.5381 15.0208 19.5381 17.479C19.5381 20.1473 21.6082 21.8757 24.7418 24.4919C26.6471 26.0826 26.8063 26.2436 27.2475 26.6208C27.7265 26.2235 27.8712 26.0184 30.0367 24.3528C32.3428 22.5791 34.9998 20.405 34.9998 17.479C34.9998 15.0503 33.2356 13 30.7799 13ZM29.2508 23.3311C28.6399 23.8009 27.961 24.3232 27.2498 24.9193C26.6622 24.4161 26.1076 23.953 25.5679 23.5025C22.6116 21.0342 20.8271 19.5443 20.8271 17.479C20.8271 15.6604 22.0687 14.289 23.715 14.289C25.4982 14.289 26.3045 15.9782 26.5684 16.7045L26.7226 17.1249H27.7724L27.9266 16.7045C28.1905 15.9783 28.9967 14.289 30.7799 14.289C32.4508 14.289 33.7108 15.6604 33.7108 17.479C33.7108 19.8979 31.1459 21.8735 29.2508 23.3311Z" fill="#161722"/>
<path d="M24.7005 34.9106C25.0555 34.9698 25.418 34.9997 25.7778 34.9997C27.3281 34.9997 28.8328 34.4477 30.0153 33.4454L34.2807 29.8759C35.1217 29.1948 35.2434 27.9591 34.5498 27.1269C33.8726 26.3144 32.6912 26.1904 31.86 26.8446L29.0945 29.098C28.9073 29.2538 28.7038 29.387 28.4887 29.4958C28.5036 29.3991 28.5114 29.3 28.5114 29.1991C28.5114 28.133 27.644 27.2656 26.5778 27.2656H22.9777C22.5344 26.8489 21.449 25.9766 20.1327 25.9766C18.814 25.9766 17.6999 26.8544 17.2503 27.2656H13V33.7108H17.4586L24.7005 34.9106ZM15.5781 32.4217H14.289V28.5546H15.5781V32.4217ZM16.8671 28.5546H17.7926C18.4086 27.9081 19.2376 27.2656 20.1326 27.2656C21.0235 27.2656 21.8213 27.8972 22.4227 28.5546H26.5778C26.9332 28.5546 27.2223 28.8437 27.2223 29.1991C27.2223 29.5545 26.9332 29.8436 26.5778 29.8436H23.3552V31.1327H27.0329C28.084 31.1327 29.1079 30.7627 29.9163 30.091L32.6609 27.8546C32.9394 27.6383 33.3334 27.6807 33.5595 27.9521C33.7927 28.2319 33.7512 28.6476 33.4674 28.8757L29.1833 32.4607C28.2332 33.2668 27.0237 33.7107 25.7778 33.7107C25.4887 33.7107 25.1976 33.6866 24.9117 33.639L17.5646 32.4217H16.8671V28.5546Z" fill="#161722"/>
</g>
<defs>
<clipPath id="clip0_1026_3601">
<rect width="22" height="22" fill="white" transform="translate(13 13)"/>
</clipPath>
</defs>
</svg>
