<svg width="48" height="48" viewBox="0 0 48 48" fill="none" xmlns="http://www.w3.org/2000/svg">
<circle cx="24" cy="24" r="24" fill="#FFD2A4"/>
<g clip-path="url(#clip0_1026_3629)">
<path d="M35.25 18.1875C34.772 18.201 34.3025 18.3172 33.8734 18.5281C32.9475 18.9911 32.4375 19.869 32.4375 21V23.767L31.5354 24.669C31.3573 23.4916 30.356 22.8113 30.312 22.782C30.2038 22.7098 30.074 22.6774 29.9446 22.6902C29.8152 22.7031 29.6942 22.7603 29.6023 22.8523L25.1023 27.3523C24.9968 27.4578 24.9375 27.6008 24.9375 27.75V35.25C24.9375 35.3992 24.9968 35.5423 25.1023 35.6477C25.2077 35.7532 25.3508 35.8125 25.5 35.8125C25.6492 35.8125 25.7923 35.7532 25.8977 35.6477C26.0032 35.5423 26.0625 35.3992 26.0625 35.25V27.983L30.0197 24.0258C30.2021 24.2344 30.3977 24.5389 30.4322 24.91C30.4807 25.4338 30.2015 26.0031 29.6025 26.6022L27.3525 28.8522C27.2484 28.958 27.1904 29.1006 27.191 29.249C27.1916 29.3974 27.2508 29.5395 27.3557 29.6445C27.4607 29.7494 27.6028 29.8086 27.7512 29.8092C27.8996 29.8098 28.0422 29.7518 28.148 29.6477L30.398 27.3977L33.398 24.3977C33.5034 24.2922 33.5625 24.1491 33.5625 24V21C33.5625 20.2999 33.8194 19.8253 34.348 19.5489C34.4567 19.4926 34.5703 19.4464 34.6875 19.4109V25.2961L31.0679 29.6397C30.9836 29.7408 30.9374 29.8683 30.9375 30V35.25C30.9375 35.3992 30.9968 35.5423 31.1023 35.6477C31.2077 35.7532 31.3508 35.8125 31.5 35.8125C31.6492 35.8125 31.7923 35.7532 31.8977 35.6477C32.0032 35.5423 32.0625 35.3992 32.0625 35.25V30.2037L35.6821 25.8601C35.7664 25.759 35.8125 25.6316 35.8125 25.5V18.75C35.8125 18.6008 35.7532 18.4577 35.6477 18.3523C35.5423 18.2468 35.3992 18.1875 35.25 18.1875Z" fill="#161722"/>
<path d="M18.3977 22.8523C18.3058 22.7603 18.1848 22.7031 18.0554 22.6902C17.926 22.6774 17.7962 22.7098 17.688 22.782C17.644 22.8113 16.6427 23.4916 16.4646 24.669L15.5625 23.767V21C15.5625 19.869 15.0525 18.9911 14.1266 18.5281C13.6975 18.3172 13.228 18.201 12.75 18.1875C12.6008 18.1875 12.4577 18.2468 12.3523 18.3523C12.2468 18.4577 12.1875 18.6008 12.1875 18.75V25.5C12.1875 25.6316 12.2336 25.759 12.3179 25.8601L15.9375 30.2037V35.25C15.9375 35.3992 15.9968 35.5423 16.1023 35.6477C16.2077 35.7532 16.3508 35.8125 16.5 35.8125C16.6492 35.8125 16.7923 35.7532 16.8977 35.6477C17.0032 35.5423 17.0625 35.3992 17.0625 35.25V30C17.0625 29.8684 17.0164 29.741 16.9321 29.6399L13.3125 25.2963V19.4114C13.4194 19.4436 13.5234 19.4848 13.6234 19.5344C14.1712 19.8083 14.4375 20.2875 14.4375 21V24C14.4375 24.1492 14.4968 24.2922 14.6023 24.3977L17.6023 27.3977L19.8523 29.6477C19.958 29.7518 20.1007 29.8099 20.2491 29.8093C20.3974 29.8087 20.5396 29.7494 20.6445 29.6445C20.7494 29.5396 20.8087 29.3974 20.8093 29.2491C20.8099 29.1007 20.7518 28.958 20.6477 28.8523L18.3977 26.6023C17.7986 26.0031 17.5194 25.4338 17.568 24.9101C17.6024 24.5387 17.7982 24.2341 17.9805 24.0257L21.9375 27.983V35.25C21.9375 35.3992 21.9968 35.5423 22.1023 35.6477C22.2077 35.7532 22.3508 35.8125 22.5 35.8125C22.6492 35.8125 22.7923 35.7532 22.8977 35.6477C23.0032 35.5423 23.0625 35.3992 23.0625 35.25V27.75C23.0625 27.6008 23.0032 27.4578 22.8977 27.3523L18.3977 22.8523Z" fill="#161722"/>
<path d="M21 17.0625H22.3125V22.5C22.3125 22.6492 22.3718 22.7923 22.4773 22.8977C22.5827 23.0032 22.7258 23.0625 22.875 23.0625H25.125C25.2742 23.0625 25.4173 23.0032 25.5227 22.8977C25.6282 22.7923 25.6875 22.6492 25.6875 22.5V17.0625H27C27.1492 17.0625 27.2923 17.0032 27.3977 16.8977C27.5032 16.7923 27.5625 16.6492 27.5625 16.5V15C27.5625 14.8508 27.5032 14.7077 27.3977 14.6023C27.2923 14.4968 27.1492 14.4375 27 14.4375H25.6875V12.75C25.6875 12.6008 25.6282 12.4577 25.5227 12.3523C25.4173 12.2468 25.2742 12.1875 25.125 12.1875H22.875C22.7258 12.1875 22.5827 12.2468 22.4773 12.3523C22.3718 12.4577 22.3125 12.6008 22.3125 12.75V14.4375H21C20.8508 14.4375 20.7077 14.4968 20.6023 14.6023C20.4968 14.7077 20.4375 14.8508 20.4375 15V16.5C20.4375 16.6492 20.4968 16.7923 20.6023 16.8977C20.7077 17.0032 20.8508 17.0625 21 17.0625ZM21.5625 15.5625H22.875C23.0242 15.5625 23.1673 15.5032 23.2727 15.3977C23.3782 15.2923 23.4375 15.1492 23.4375 15V13.3125H24.5625V15C24.5625 15.1492 24.6218 15.2923 24.7273 15.3977C24.8327 15.5032 24.9758 15.5625 25.125 15.5625H26.4375V15.9375H25.125C24.9758 15.9375 24.8327 15.9968 24.7273 16.1023C24.6218 16.2077 24.5625 16.3508 24.5625 16.5V21.9375H23.4375V16.5C23.4375 16.3508 23.3782 16.2077 23.2727 16.1023C23.1673 15.9968 23.0242 15.9375 22.875 15.9375H21.5625V15.5625Z" fill="#161722"/>
<path d="M29.4375 15.75C29.4375 15.8992 29.4968 16.0423 29.6023 16.1477C29.7077 16.2532 29.8508 16.3125 30 16.3125H30.75C30.8992 16.3125 31.0423 16.2532 31.1477 16.1477C31.2532 16.0423 31.3125 15.8992 31.3125 15.75C31.3125 15.6008 31.2532 15.4577 31.1477 15.3523C31.0423 15.2468 30.8992 15.1875 30.75 15.1875H30C29.8508 15.1875 29.7077 15.2468 29.6023 15.3523C29.4968 15.4577 29.4375 15.6008 29.4375 15.75Z" fill="#161722"/>
<path d="M29.2971 13.6874C29.3958 13.6875 29.4927 13.6615 29.5781 13.612L30.2276 13.237C30.2921 13.2004 30.3487 13.1513 30.3941 13.0927C30.4396 13.0341 30.473 12.967 30.4924 12.8954C30.5119 12.8238 30.5169 12.7491 30.5074 12.6755C30.4978 12.602 30.4738 12.531 30.4367 12.4668C30.3996 12.4025 30.3502 12.3463 30.2913 12.3012C30.2323 12.2562 30.1651 12.2232 30.0934 12.2042C30.0216 12.1853 29.9469 12.1807 29.8734 12.1907C29.7999 12.2008 29.7291 12.2253 29.6651 12.2628L29.0156 12.6378C28.9084 12.6997 28.8245 12.7953 28.7772 12.9097C28.7298 13.0242 28.7215 13.151 28.7536 13.2706C28.7857 13.3903 28.8563 13.4959 28.9546 13.5713C29.0529 13.6467 29.1733 13.6875 29.2971 13.6874Z" fill="#161722"/>
<path d="M29.0159 18.862L29.6654 19.237C29.7946 19.3105 29.9475 19.3298 30.0908 19.2909C30.2342 19.252 30.3563 19.1579 30.4306 19.0293C30.5048 18.9007 30.5252 18.7479 30.4873 18.6043C30.4493 18.4607 30.3561 18.3379 30.2279 18.2628L29.5784 17.8878C29.5144 17.8503 29.4436 17.8258 29.3701 17.8157C29.2966 17.8057 29.2219 17.8103 29.1502 17.8292C29.0785 17.8482 29.0112 17.8812 28.9523 17.9262C28.8933 17.9713 28.8439 18.0275 28.8068 18.0918C28.7697 18.156 28.7457 18.227 28.7361 18.3005C28.7266 18.3741 28.7317 18.4488 28.7511 18.5204C28.7705 18.592 28.8039 18.6591 28.8494 18.7177C28.8948 18.7763 28.9514 18.8254 29.0159 18.862Z" fill="#161722"/>
<path d="M17.25 16.3125H18C18.1492 16.3125 18.2923 16.2532 18.3977 16.1477C18.5032 16.0423 18.5625 15.8992 18.5625 15.75C18.5625 15.6008 18.5032 15.4577 18.3977 15.3523C18.2923 15.2468 18.1492 15.1875 18 15.1875H17.25C17.1008 15.1875 16.9577 15.2468 16.8523 15.3523C16.7468 15.4577 16.6875 15.6008 16.6875 15.75C16.6875 15.8992 16.7468 16.0423 16.8523 16.1477C16.9577 16.2532 17.1008 16.3125 17.25 16.3125Z" fill="#161722"/>
<path d="M17.7722 13.2372L18.4217 13.6122C18.4857 13.6497 18.5564 13.6742 18.6299 13.6843C18.7034 13.6943 18.7782 13.6897 18.8499 13.6708C18.9216 13.6518 18.9889 13.6188 19.0478 13.5738C19.1068 13.5287 19.1562 13.4725 19.1933 13.4082C19.2304 13.344 19.2544 13.273 19.2639 13.1995C19.2735 13.1259 19.2684 13.0512 19.249 12.9796C19.2296 12.908 19.1961 12.8409 19.1507 12.7823C19.1052 12.7237 19.0486 12.6746 18.9842 12.638L18.3347 12.263C18.2055 12.1895 18.0526 12.1702 17.9093 12.2091C17.7659 12.248 17.6438 12.3421 17.5695 12.4707C17.4952 12.5993 17.4749 12.7521 17.5128 12.8957C17.5508 13.0393 17.644 13.1621 17.7722 13.2372Z" fill="#161722"/>
<path d="M18.4223 17.8878L17.7728 18.2628C17.7083 18.2995 17.6517 18.3485 17.6062 18.4071C17.5608 18.4658 17.5274 18.5328 17.5079 18.6044C17.4885 18.676 17.4834 18.7507 17.493 18.8243C17.5025 18.8978 17.5266 18.9688 17.5636 19.033C17.6007 19.0973 17.6502 19.1536 17.7091 19.1986C17.768 19.2437 17.8353 19.2766 17.907 19.2956C17.9787 19.3146 18.0535 19.3191 18.127 19.3091C18.2005 19.299 18.2713 19.2746 18.3353 19.237L18.9848 18.862C19.0493 18.8254 19.1058 18.7763 19.1513 18.7177C19.1968 18.6591 19.2302 18.592 19.2496 18.5204C19.269 18.4488 19.2741 18.3741 19.2646 18.3005C19.255 18.227 19.231 18.156 19.1939 18.0918C19.1568 18.0275 19.1074 17.9713 19.0484 17.9262C18.9895 17.8812 18.9222 17.8482 18.8505 17.8292C18.7788 17.8103 18.704 17.8057 18.6305 17.8157C18.557 17.8258 18.4863 17.8503 18.4223 17.8878Z" fill="#161722"/>
</g>
<defs>
<clipPath id="clip0_1026_3629">
<rect width="24" height="24" fill="white" transform="translate(12 12)"/>
</clipPath>
</defs>
</svg>
