<svg width="48" height="48" viewBox="0 0 48 48" fill="none" xmlns="http://www.w3.org/2000/svg">
<circle cx="24" cy="24" r="24" fill="#FFD2A4"/>
<g clip-path="url(#clip0_1026_3612)">
<path d="M24.0004 20.791C22.2307 20.791 20.791 22.2308 20.791 24.0004C20.791 25.77 22.2308 27.2098 24.0004 27.2098C25.77 27.2098 27.2098 25.77 27.2098 24.0004C27.2098 22.2308 25.7701 20.791 24.0004 20.791ZM24.0004 25.6863C23.0707 25.6863 22.3145 24.93 22.3145 24.0004C22.3145 23.0708 23.0708 22.3145 24.0004 22.3145C24.93 22.3145 25.6863 23.0708 25.6863 24.0004C25.6863 24.93 24.93 25.6863 24.0004 25.6863Z" fill="#161722"/>
<path d="M18.1956 18.1954L17.1183 17.1182C15.2775 18.959 14.2637 21.403 14.2637 23.9999C14.2637 26.5968 15.2775 29.0408 17.1184 30.8817L18.1956 29.8044C16.6424 28.2513 15.7871 26.1899 15.7871 23.9999C15.7871 21.81 16.6424 19.7485 18.1956 18.1954Z" fill="#161722"/>
<path d="M15.8889 15.8887L14.8117 14.8115C12.3537 17.2695 11 20.5326 11 23.9998C11 27.467 12.3537 30.7302 14.8117 33.1881L15.8889 32.1109C13.7187 29.9407 12.5234 27.0601 12.5234 23.9998C12.5234 20.9396 13.7187 18.059 15.8889 15.8887Z" fill="#161722"/>
<path d="M33.1885 14.8115L32.1113 15.8887C34.2816 18.059 35.4768 20.9395 35.4768 23.9998C35.4768 27.0601 34.2816 29.9407 32.1114 32.111L33.1886 33.1882C35.6466 30.7302 37.0002 27.467 37.0002 23.9998C37.0002 20.5326 35.6466 17.2695 33.1885 14.8115Z" fill="#161722"/>
<path d="M30.882 17.1182L29.8047 18.1954C31.3579 19.7485 32.2132 21.81 32.2132 23.9999C32.2132 26.1899 31.3578 28.2513 29.8047 29.8044L30.8819 30.8817C32.7228 29.0408 33.7366 26.5968 33.7366 23.9999C33.7366 21.403 32.7228 18.959 30.882 17.1182Z" fill="#161722"/>
<path d="M28.5753 19.4248L27.4981 20.502C28.4341 21.4381 28.9496 22.6803 28.9496 23.9999C28.9496 25.3195 28.4341 26.5618 27.498 27.4979L28.5753 28.5751C29.7991 27.3513 30.4731 25.7265 30.4731 23.9999C30.4731 22.2734 29.7991 20.6486 28.5753 19.4248Z" fill="#161722"/>
<path d="M20.5024 20.502L19.4251 19.4248C18.2013 20.6486 17.5273 22.2734 17.5273 23.9999C17.5273 25.7265 18.2013 27.3513 19.4251 28.5751L20.5024 27.4979C19.5663 26.5618 19.0508 25.3195 19.0508 23.9999C19.0508 22.6803 19.5663 21.4381 20.5024 20.502Z" fill="#161722"/>
</g>
<defs>
<clipPath id="clip0_1026_3612">
<rect width="26" height="26" fill="white" transform="translate(11 11)"/>
</clipPath>
</defs>
</svg>
