<svg width="189" height="140" viewBox="0 0 189 140" fill="none" xmlns="http://www.w3.org/2000/svg">
<path d="M78.1178 33.4661C78.1178 24.17 74.7316 16.1753 67.959 9.48206C61.5627 3.16069 53.4733 0 43.6907 0C30.1456 0 19.6105 4.64808 12.0854 13.9442C4.56038 23.6122 0.797852 34.7676 0.797852 47.4104C0.797852 66.7463 6.62977 84.2231 18.2936 99.8406C29.9575 115.83 43.3144 129.216 58.3646 140L77.5535 121.036C72.6622 116.202 66.8303 110.252 60.0577 103.187C53.2851 96.1222 49.8989 88.8712 49.8989 81.4343C49.8989 76.6003 52.1564 72.324 56.6714 68.6056C61.5627 64.8871 66.2659 60.425 70.7809 55.2191C75.6722 50.0133 78.1178 42.7623 78.1178 33.4661ZM188.172 33.4661C188.172 24.17 184.786 16.1753 178.013 9.48206C171.617 3.16069 163.527 0 153.745 0C140.2 0 129.665 4.64808 122.139 13.9442C114.614 23.6122 110.852 34.7676 110.852 47.4104C110.852 66.7463 116.684 84.2231 128.348 99.8406C140.011 115.83 153.368 129.216 168.419 140L187.607 121.036C182.716 116.202 176.884 110.252 170.112 103.187C163.339 96.1222 159.953 88.8712 159.953 81.4343C159.953 76.6003 162.21 72.324 166.725 68.6056C171.617 64.8871 176.32 60.425 180.835 55.2191C185.726 50.0133 188.172 42.7623 188.172 33.4661Z" fill="#FFF5EB"/>
</svg>
