<svg width="193" height="140" viewBox="0 0 193 140" fill="none" xmlns="http://www.w3.org/2000/svg">
<path d="M79.8481 33.4661C79.8481 24.17 76.3762 16.1753 69.4324 9.48206C62.8744 3.16069 54.5804 0 44.5505 0C30.663 0 19.8615 4.64808 12.1462 13.9442C4.4309 23.6122 0.573242 34.7676 0.573242 47.4104C0.573242 66.7463 6.55261 84.2231 18.5114 99.8406C30.4701 115.83 44.1648 129.216 59.5954 140L79.2695 121.036C74.2545 116.202 68.2751 110.252 61.3313 103.187C54.3876 96.1222 50.9157 88.8712 50.9157 81.4343C50.9157 76.6003 53.2303 72.324 57.8595 68.6056C62.8744 64.8871 67.6965 60.425 72.3257 55.2191C77.3406 50.0133 79.8481 42.7623 79.8481 33.4661ZM192.685 33.4661C192.685 24.17 189.213 16.1753 182.269 9.48206C175.711 3.16069 167.417 0 157.387 0C143.499 0 132.698 4.64808 124.983 13.9442C117.267 23.6122 113.41 34.7676 113.41 47.4104C113.41 66.7463 119.389 84.2231 131.348 99.8406C143.307 115.83 157.001 129.216 172.432 140L192.106 121.036C187.091 116.202 181.112 110.252 174.168 103.187C167.224 96.1222 163.752 88.8712 163.752 81.4343C163.752 76.6003 166.067 72.324 170.696 68.6056C175.711 64.8871 180.533 60.425 185.162 55.2191C190.177 50.0133 192.685 42.7623 192.685 33.4661Z" fill="#FFF5EB"/>
</svg>
